<?xml version="1.0" encoding="utf-8"?>
<!-- Generator: Adobe Illustrator 13.0.1, SVG Export Plug-In . SVG Version: 6.00 Build 14948)  -->
<!DOCTYPE svg PUBLIC "-//W3C//DTD SVG 1.1//EN" "http://www.w3.org/Graphics/SVG/1.1/DTD/svg11.dtd">
<svg version="1.1" id="Livello_1" xmlns="http://www.w3.org/2000/svg" xmlns:xlink="http://www.w3.org/1999/xlink" x="0px" y="0px"
	 width="24px" height="24px" viewBox="0 0 24 24" enable-background="new 0 0 24 24" xml:space="preserve">
<g>
	<path fill-rule="evenodd" clip-rule="evenodd" fill="#BED3E0" d="M18.744,5.317c-0.024-0.022-0.049-0.044-0.075-0.062L18.263,4.98
		c-0.27-0.183-0.636-0.112-0.819,0.157L15.896,7.42c-0.183,0.27-0.111,0.636,0.158,0.819l0.121,0.083
		c1.182,0.773,1.962,2.105,1.962,3.621c0,2.387-1.93,4.32-4.32,4.331v-1.535c0-0.457-0.382-0.826-0.857-0.826
		c-0.188,0-0.366,0.059-0.509,0.161l-4.539,3.383c-0.524,0.523-0.524,1.051,0,1.574l4.539,3.382c0.143,0.104,0.32,0.162,0.509,0.162
		c0.476,0,0.857-0.37,0.857-0.827v-1.535c4.567-0.012,8.27-3.71,8.27-8.27C22.087,9.228,20.771,6.822,18.744,5.317z"/>
	<path fill-rule="evenodd" clip-rule="evenodd" fill="#BED3E0" d="M5.256,16.833c0.024,0.022,0.049,0.044,0.075,0.062l0.406,0.274
		c0.27,0.183,0.637,0.112,0.819-0.157l1.547-2.282c0.183-0.27,0.111-0.636-0.157-0.819l-0.122-0.083
		c-1.181-0.773-1.962-2.105-1.962-3.621c0-2.387,1.93-4.32,4.32-4.331v1.535c0,0.457,0.382,0.826,0.857,0.826
		c0.188,0,0.366-0.059,0.509-0.161l4.539-3.383c0.524-0.523,0.524-1.051,0-1.574l-4.539-3.382c-0.143-0.104-0.32-0.162-0.509-0.162
		c-0.476,0-0.857,0.37-0.857,0.827v1.535c-4.567,0.012-8.27,3.71-8.27,8.27C1.913,12.923,3.229,15.328,5.256,16.833z"/>
</g>
</svg>
