<?xml version="1.0" encoding="utf-8"?>
<!-- Generator: Adobe Illustrator 13.0.1, SVG Export Plug-In . SVG Version: 6.00 Build 14948)  -->
<!DOCTYPE svg PUBLIC "-//W3C//DTD SVG 1.1//EN" "http://www.w3.org/Graphics/SVG/1.1/DTD/svg11.dtd">
<svg version="1.1" id="Livello_1" xmlns="http://www.w3.org/2000/svg" xmlns:xlink="http://www.w3.org/1999/xlink" x="0px" y="0px"
	 width="24px" height="24px" viewBox="0 0 24 24" enable-background="new 0 0 24 24" xml:space="preserve">
<path fill-rule="evenodd" clip-rule="evenodd" fill="#BED3E0" d="M8.059,20.41c0.024,0.021,0.049,0.043,0.075,0.062l0.406,0.273
	c0.27,0.184,0.637,0.113,0.819-0.156l1.547-2.283c0.183-0.27,0.111-0.635-0.157-0.818l-0.122-0.084
	c-1.181-0.773-1.962-2.105-1.962-3.621c0-2.387,1.93-4.321,4.32-4.331v1.535c0,0.457,0.382,0.826,0.857,0.826
	c0.188,0,0.366-0.059,0.509-0.162l4.539-3.383c0.524-0.523,0.524-1.051,0-1.574l-4.539-3.381c-0.143-0.104-0.32-0.162-0.509-0.162
	c-0.476,0-0.857,0.369-0.857,0.826v1.535c-4.567,0.012-8.27,3.711-8.27,8.27C4.716,16.5,6.032,18.904,8.059,20.41z"/>
</svg>
