<?xml version="1.0" encoding="utf-8"?>
<!-- Generator: Adobe Illustrator 15.0.0, SVG Export Plug-In . SVG Version: 6.00 Build 0)  -->
<!DOCTYPE svg PUBLIC "-//W3C//DTD SVG 1.1//EN" "http://www.w3.org/Graphics/SVG/1.1/DTD/svg11.dtd">
<svg version="1.1" id="Layer_1" xmlns="http://www.w3.org/2000/svg" xmlns:xlink="http://www.w3.org/1999/xlink" x="0px" y="0px"
	 width="26px" height="26px" viewBox="0 0 26 26" enable-background="new 0 0 26 26" xml:space="preserve">
<path fill-rule="evenodd" clip-rule="evenodd" fill="#ED1C24" d="M11.151,22.938c0.763-0.139,1.589-0.377,2.155-0.94l11.031-11.045
	c0.883-0.889,0.883-2.326,0-3.214L21.693,5.09c0,0,0.001,0,0.002-0.001l-3.348-3.352c-0.007-0.007-0.017-0.013-0.023-0.021
	l-0.275-0.274c-0.008,0.01-0.019,0.02-0.025,0.032c-0.886-0.607-2.103-0.521-2.886,0.263L4.147,12.74
	c-0.566,0.565-0.837,1.373-0.976,2.193l-0.21,0.988l0,0c-0.506,2.399-1.334,5.916-1.905,8.203c0.001,0,0.013,0.014,0.015,0.015
	C1.029,24.215,1,24.298,1,24.39c0,0.296,0.24,0.534,0.534,0.534c0.076,0,0.147-0.017,0.213-0.045L11.151,22.938z M13.932,6.962
	c0.191-0.191,0.433-0.283,0.681-0.31c0.082-0.008,0.162-0.01,0.243,0c0.077,0.009,0.152,0.021,0.226,0.044
	c0.132,0.043,0.258,0.109,0.368,0.207c0.02,0.016,0.044,0.024,0.063,0.042c0.104,0.107,0.183,0.227,0.236,0.355
	c0.004,0.01,0.008,0.02,0.01,0.03c0.157,0.407,0.075,0.882-0.252,1.209L8.08,15.974c-0.554,0.556-0.554,1.456,0,2.011
	c0.556,0.554,1.45,0.554,2.004,0l7.429-7.436c0.16-0.16,0.361-0.24,0.569-0.285c0,0.011,0.002,0.023,0.002,0.035
	c0.002,0,0.003,0,0.003,0c0-0.013,0.005-0.025,0.005-0.037c0.36-0.071,0.748,0.01,1.027,0.287c0.443,0.445,0.443,1.166,0,1.611
	l-8.031,8.034l-3.339,0.641l-2.474-2.538l0.627-3.294L13.932,6.962z"/>
</svg>
